<svg id="Layer_1" data-name="Layer 1" xmlns="http://www.w3.org/2000/svg" viewBox="0 0 402.36 94.41"><defs><style>.cls-1,.cls-2{stroke:#231f20;stroke-miterlimit:10;stroke-width:0.1px;}.cls-2,.cls-3{fill:#fff;}.cls-4{font-size:58px;fill:#231f20;font-family:GisbonDEMO, Gisbon DEMO;}.cls-5{letter-spacing:0.03em;}.cls-6{letter-spacing:-0.02em;}.cls-7{letter-spacing:-0.1em;}.cls-8,.cls-9{font-size:30px;}.cls-9{letter-spacing:-0.02em;}</style></defs><path class="cls-1" d="M38.57,71.18c-1.32-.21-2.45-.33-3.56-.57-1.7-.37-3.41-.73-5.06-1.25A25.76,25.76,0,0,1,20,64c-2.19-2-4-4.38-4.32-7.53a15.73,15.73,0,0,1,.44-5.84,34.8,34.8,0,0,0,.78-5.36,52.08,52.08,0,0,1,.95-7,15.3,15.3,0,0,1,4.62-7.8,8.84,8.84,0,0,1,2.23-1.2c.7-.33,1.43-.58,2.15-.87a4.65,4.65,0,0,1,.63-.21c2.09-.46,4.17-1.07,6.28-1.32a11.31,11.31,0,0,1,5,.32c1.43.49,2.89.89,4.36,1.24a8.32,8.32,0,0,0,1.87,0c.27-.76.48-1.51.8-2.2a21.27,21.27,0,0,1,6.7-8.42,12.66,12.66,0,0,1,4-2.17c.37-.11.76-.16,1.2-.26a4,4,0,0,1,.1.67,1.73,1.73,0,0,0,.75,1.52c.64.5.58.72-.19,1.28-1.67-1.06-3.39-.94-5.12.68-2.29,2.16-4.51,4.41-5.8,7.37-.14.32-.23.66-.43,1.24l1.54-.58c1.67-.61,3.3-1.31,5-1.78a5.34,5.34,0,0,1,3.58.24c.78.34,1.63.49,2.43.78a13.78,13.78,0,0,1,6.4,4.39c1,1.25,1.86,2.57,2.77,3.88.57.82,1.12,1.65,1.66,2.49a13.73,13.73,0,0,1,1.89,5.63,32.3,32.3,0,0,1,0,8.73,47.62,47.62,0,0,1-1.87,9.33,10.06,10.06,0,0,1-4.68,6c-2.86,1.54-5.81,2.13-8.93.8l-2.69-1.11a7.86,7.86,0,0,0-1.35,3.35c-.22,1.68-.31,3.38-.5,5.07-.17,1.53-.4,3-.62,4.58a3.34,3.34,0,0,1-.27.67l-.86-.34c-.57.38-1.11.77-1.66,1.12a2.05,2.05,0,0,1-1.82.18,8,8,0,0,1-4.6-3.77C41.1,75.53,39.8,73.29,38.57,71.18Zm-2.3-3.39c.29.47.73.45,1.21.23l-1.23-.2a28.89,28.89,0,0,1-5.55-4.17,10.36,10.36,0,0,1-3.21-6.73c0-.2-.07-.39-.1-.59a3.54,3.54,0,0,0,0,2.36,8.13,8.13,0,0,0,2.32,4.68c1.05,1,2.09,2,3.2,2.88A6.1,6.1,0,0,0,36.27,67.79Zm2.19-9.74c-.2.32-.4.65-.62,1,0,0-.12,0-.24.08L37.28,58c-.27.55-.57.89-.58,1.23,0,1.92,0,3.85.1,5.77a7.34,7.34,0,0,0,.39,1.55,3.93,3.93,0,0,0,.06-1.36c-.06-1-.13-2.07-.17-3.1,0-.34,0-.73.42-.88.1,1.4.23,2.76.27,4.11a17.39,17.39,0,0,0,2.55,7.87c.66,1.2,1.43,2.33,2.08,3.53a8.24,8.24,0,0,0,3.36,3.7c1.74.91,2.56.89,4-.39a.91.91,0,0,0,.24-.24c.12-.22.31-.45.3-.68a8.36,8.36,0,0,0-.32-3.4,5.05,5.05,0,0,1-.14-1.62c0-.2,0-.4,0-.62-.46.09-.65.73-1.18.41a5.69,5.69,0,0,0,1.77-3.47,14.63,14.63,0,0,1,.93-4.53,2.79,2.79,0,0,0,.21-1.3A5.27,5.27,0,0,1,52,62.05a1.55,1.55,0,0,0,.14-.62A5.25,5.25,0,0,0,47,56.9c-.66,0-1.46.41-1.85-.56,0,0-.13,0-.2-.06a5.37,5.37,0,0,0-4,0c-.23.1-.49.14-.74.22,0,0-.07.09-.08.1l.57.49c-.77.48-1.76.19-2.26,1ZM55.55,67c.54.21.88.31,1.2.46,3.21,1.5,6.22.84,9.07-.91a9.9,9.9,0,0,0,4.23-6.05,55.86,55.86,0,0,0,1.81-10.13,28.71,28.71,0,0,0-.45-8.28,9.83,9.83,0,0,0-1.26-3.53q-2-3.1-4.13-6.18a12.27,12.27,0,0,0-5.75-4.53c-1.1-.44-2.25-.73-3.35-1.17a6.51,6.51,0,0,0-4.56,0c-1.08.36-2.11.88-3.18,1.3A30.62,30.62,0,0,1,46.27,29a4.47,4.47,0,0,1-2,.17c-2-.39-3.9-.84-5.8-1.4a10.76,10.76,0,0,0-4.94-.25,37.66,37.66,0,0,0-9,2.39,7.46,7.46,0,0,0-2.34,1.44A15.45,15.45,0,0,0,17.8,41c-.18,1.76-.31,3.53-.5,5.3-.13,1.21-.29,2.42-.49,3.62-.18,1-.51,2-.64,3a10.74,10.74,0,0,0,1.69,7.94,20.07,20.07,0,0,0,8.59,6.62,45,45,0,0,0,9.15,2.65,5.86,5.86,0,0,0,2.64.19c0-.17,0-.32-.06-.46a1.55,1.55,0,0,0-1.38-1.29,10.74,10.74,0,0,1-5-2.65c-.32-.31-.67-.57-1-.85a10.43,10.43,0,0,1-4.12-8.36,17,17,0,0,1,1.3-6.26,15.12,15.12,0,0,0,.69-1.75,15.53,15.53,0,0,1,2.21-4.58,6.58,6.58,0,0,1,1-1.15,15.39,15.39,0,0,1,3.73-2.36,16,16,0,0,1,5.33-1.79,14.69,14.69,0,0,0,1.84-.39,9.55,9.55,0,0,1,5.14-.15,12.94,12.94,0,0,0,2,.33,44,44,0,0,1,7.22,1.16,24.28,24.28,0,0,0,2.41.8A5.59,5.59,0,0,1,62.19,42a5.74,5.74,0,0,1,2,3.58,23,23,0,0,1,.27,2.87,37.49,37.49,0,0,1-.85,9.91c-.36,1.4-.74,2.78-1.15,4.16a1.35,1.35,0,0,1-.44.75c-1.13.7-1.85,1.88-3.16,2.41a11.21,11.21,0,0,1-2.57,1A5.61,5.61,0,0,0,55.55,67ZM27.77,53.75a5.91,5.91,0,0,0,.45-1c.55-2.21,1.78-4.14,2.56-6.26a7.71,7.71,0,0,1,3.55-4.08,30.4,30.4,0,0,1,5.06-2.21,18.7,18.7,0,0,1,3.37-.59,18.48,18.48,0,0,1,3-.32,37.75,37.75,0,0,1,4,.35c.91.1,1.82.27,2.73.43,1.63.28,3.32.21,4.86,1a2.58,2.58,0,0,0,.85.1c-.12-.3-.26-.43-.42-.48a32.91,32.91,0,0,0-3.22-.8c-2.26-.37-4.54-.6-6.8-1a11.41,11.41,0,0,0-4.51.07c-.79.18-1.58.38-2.38.51a20.55,20.55,0,0,0-7,2.76,10.2,10.2,0,0,0-4.36,5.81c-.28.77-.48,1.56-.82,2.29A8.2,8.2,0,0,0,27.77,53.75ZM58.51,41.13c.26.35.37.61.55.71.55.29,1.13.52,1.7.78a3,3,0,0,1,1.65,2,18.89,18.89,0,0,1,.71,4.14A51.77,51.77,0,0,1,63,56.81a14.47,14.47,0,0,0,0,1.76,23.2,23.2,0,0,0,1-7,42.28,42.28,0,0,0-.23-5.85C63.39,43.23,61.32,41.44,58.51,41.13Zm-13-12.68c.83-.13.86-.13.92-.43a10.26,10.26,0,0,1,2.4-4.56c1.19-1.41,2.43-2.79,3.73-4.1a5.18,5.18,0,0,1,4.37-1.76,1,1,0,0,0,.39-.09L57,15.94C51.2,18.38,47.67,22.68,45.51,28.45ZM34.26,43.13c.21,1.86-.49,3.73.77,5.36,1.22-1.93.88-3.88.36-6Zm9.52-.45L44,39.93l-2.27.53c-.34,2-.34,2-.08,2.89A3.26,3.26,0,0,0,43.78,42.68ZM50.69,42a5,5,0,0,0,0-1c0-.22-.22-.55-.38-.58A5.08,5.08,0,0,0,48,40.24C47.74,41.82,48.82,42.52,50.69,42Zm8.41.46c-.85,1.33-.88,4-.11,4.71.38-1.35.77-2.72,1.19-4.19ZM33.74,43.74l-1.22.78c.15.79.29,1.49.45,2.32.26-.22.44-.31.45-.41C33.54,45.61,33.62,44.79,33.74,43.74Zm2.49-1.57a2.17,2.17,0,0,0,1,1.68l.53-2.23ZM32,45.37l-1,2.21C32.24,47.25,32.3,47.13,32,45.37Zm24,20.55.06.25a3,3,0,0,0,2.2-.94ZM61.2,43.73c-.83.49-.87.71-.38,1.64ZM62,45.91l-.29-1.41C61.26,45.43,61.27,45.55,62,45.91Zm-4.66-4.12-.32,1.38C58,42.26,58,42.26,57.38,41.79ZM59.46,64.5l.14.2.69-.62-.12-.14ZM27.4,55.4h.09v-.8H27.4ZM47.92,42.89l-.09-.24-.78.28.09.25Z"/><path class="cls-1" d="M50.61,81.71a3.36,3.36,0,0,1,.3,1.1A7.37,7.37,0,0,0,51.75,86a3.27,3.27,0,0,1,.11,2.11c-.1.31-.19.62-.3,1l-.93-.56a3.83,3.83,0,0,0-.36-2.44,5.21,5.21,0,0,1,.07-4.32Z"/><path class="cls-2" d="M55.55,67a5.61,5.61,0,0,1,.78-.29,11.21,11.21,0,0,0,2.57-1c1.31-.53,2-1.71,3.16-2.41a1.35,1.35,0,0,0,.44-.75c.41-1.38.79-2.76,1.15-4.16a37.49,37.49,0,0,0,.85-9.91,23,23,0,0,0-.27-2.87,5.74,5.74,0,0,0-2-3.58,5.59,5.59,0,0,0-2.72-1.4,24.28,24.28,0,0,1-2.41-.8,44,44,0,0,0-7.22-1.16,12.94,12.94,0,0,1-2-.33,9.55,9.55,0,0,0-5.14.15,14.69,14.69,0,0,1-1.84.39,16,16,0,0,0-5.33,1.79A15.39,15.39,0,0,0,31.84,43a6.58,6.58,0,0,0-1,1.15,15.53,15.53,0,0,0-2.21,4.58,15.12,15.12,0,0,1-.69,1.75,17,17,0,0,0-1.3,6.26,10.43,10.43,0,0,0,4.12,8.36c.35.28.7.54,1,.85a10.74,10.74,0,0,0,5,2.65,1.55,1.55,0,0,1,1.38,1.29c0,.14,0,.29.06.46a5.86,5.86,0,0,1-2.64-.19,45,45,0,0,1-9.15-2.65,20.07,20.07,0,0,1-8.59-6.62A10.74,10.74,0,0,1,16.17,53c.13-1,.46-2,.64-3,.2-1.2.36-2.41.49-3.62.19-1.77.32-3.54.5-5.3a15.45,15.45,0,0,1,4.48-9.66,7.46,7.46,0,0,1,2.34-1.44,37.66,37.66,0,0,1,9-2.39,10.76,10.76,0,0,1,4.94.25c1.9.56,3.85,1,5.8,1.4a4.47,4.47,0,0,0,2-.17A30.62,30.62,0,0,0,49.18,28c1.07-.42,2.1-.94,3.18-1.3a6.51,6.51,0,0,1,4.56,0c1.1.44,2.25.73,3.35,1.17A12.27,12.27,0,0,1,66,32.34q2.08,3.07,4.13,6.18a9.83,9.83,0,0,1,1.26,3.53,28.71,28.71,0,0,1,.45,8.28,55.86,55.86,0,0,1-1.81,10.13,9.9,9.9,0,0,1-4.23,6.05c-2.85,1.75-5.86,2.41-9.07.91C56.43,67.27,56.09,67.17,55.55,67Z"/><path class="cls-2" d="M38.43,58.07c.5-.79,1.49-.5,2.26-1l-.57-.49s0-.08.08-.1c.25-.08.51-.12.74-.22a5.37,5.37,0,0,1,4,0c.07,0,.19,0,.2.06.39,1,1.19.56,1.85.56a5.25,5.25,0,0,1,5.1,4.53,1.55,1.55,0,0,1-.14.62,5.27,5.27,0,0,0-.39,2.49,2.79,2.79,0,0,1-.21,1.3,14.63,14.63,0,0,0-.93,4.53,5.69,5.69,0,0,1-1.77,3.47c.53.32.72-.32,1.18-.41,0,.22,0,.42,0,.62A5.05,5.05,0,0,0,50,75.67a8.36,8.36,0,0,1,.32,3.4c0,.23-.18.46-.3.68a.91.91,0,0,1-.24.24c-1.43,1.28-2.25,1.3-4,.39a8.24,8.24,0,0,1-3.36-3.7c-.65-1.2-1.42-2.33-2.08-3.53a17.39,17.39,0,0,1-2.55-7.87c0-1.35-.17-2.71-.27-4.11-.43.15-.43.54-.42.88,0,1,.11,2.06.17,3.1a3.93,3.93,0,0,1-.06,1.36A7.34,7.34,0,0,1,36.8,65c-.08-1.92-.11-3.85-.1-5.77,0-.34.31-.68.58-1.23l.32,1.14c.12,0,.21,0,.24-.08.22-.32.42-.65.63-1,.12.33.23.68.36,1a16.5,16.5,0,0,1,.92,2.24,2.9,2.9,0,0,0,1,1.77,1.55,1.55,0,0,1,.64,1.45,4.89,4.89,0,0,0,0,1.21c.08.44,0,1,.48,1.35.32-.85-.46-1.65.11-2.45l.6.48.19-.13a8.58,8.58,0,0,0-.54-1A10.4,10.4,0,0,0,41,62.6a2.59,2.59,0,0,1-.73-1.19c-.35-1-.78-1.9-1.22-2.82C39,58.37,38.65,58.24,38.43,58.07Zm5.85,2.21c1,1.15,2.38,2,2.67,3.58a.39.39,0,0,0,.17.27c.55.28.44.78.49,1.26a3.47,3.47,0,0,0,.59,2.09c.07-1-.5-1.82.08-2.66,1,1.35,1,1.35,1.47,1-.56-.73-1.11-1.47-1.69-2.18a25.14,25.14,0,0,1-1.92-2.23A4.1,4.1,0,0,0,44,59.64l-.24-2.12a1.76,1.76,0,0,0-.36,1.71c.27,2,.52,4,.87,5.91a28.64,28.64,0,0,0,1,4.42A13.61,13.61,0,0,1,46,73.34a7.07,7.07,0,0,0,.29,1.51c0,.12.3.19.47.29a13.19,13.19,0,0,1-.34-1.76A9.87,9.87,0,0,0,45.58,69a2.27,2.27,0,0,1-.22-.74q-.54-3.45-1.07-6.9A7.35,7.35,0,0,1,44.28,60.28ZM43.11,74.87l.29-.12-.89-2.49L44,71.73c-.43-.49-.44-.52-.68-.41-.47.22-.92.47-1.37.71s-.89.6-1.64.17c.5,1.1,1.19.48,1.73.53Z"/><path class="cls-2" d="M27.77,53.75a8.2,8.2,0,0,1,.87-3.41c.34-.73.54-1.52.82-2.29a10.2,10.2,0,0,1,4.36-5.81,20.55,20.55,0,0,1,7-2.76c.8-.13,1.59-.33,2.38-.51a11.41,11.41,0,0,1,4.51-.07c2.26.38,4.54.61,6.8,1a32.91,32.91,0,0,1,3.22.8c.16,0,.3.18.42.48a2.58,2.58,0,0,1-.85-.1c-1.54-.78-3.23-.71-4.86-1-.91-.16-1.82-.33-2.73-.43a37.75,37.75,0,0,0-4-.35,18.48,18.48,0,0,0-3,.32,18.7,18.7,0,0,0-3.37.59,30.4,30.4,0,0,0-5.06,2.21,7.71,7.71,0,0,0-3.55,4.08c-.78,2.12-2,4-2.56,6.26A5.91,5.91,0,0,1,27.77,53.75Z"/><path class="cls-2" d="M58.51,41.13c2.81.31,4.88,2.1,5.18,4.54a42.28,42.28,0,0,1,.23,5.85,23.2,23.2,0,0,1-1,7,14.47,14.47,0,0,1,0-1.76,51.77,51.77,0,0,0,.14-8.07,18.89,18.89,0,0,0-.71-4.14,3,3,0,0,0-1.65-2c-.57-.26-1.15-.49-1.7-.78C58.88,41.74,58.77,41.48,58.51,41.13Z"/><path class="cls-2" d="M45.51,28.45C47.67,22.68,51.2,18.38,57,15.94l.35,1.57a1,1,0,0,1-.39.09,5.18,5.18,0,0,0-4.37,1.76c-1.3,1.31-2.54,2.69-3.73,4.1A10.26,10.26,0,0,0,46.43,28C46.37,28.32,46.34,28.32,45.51,28.45Z"/><path class="cls-2" d="M34.26,43.13l1.13-.6c.52,2.08.86,4-.36,6C33.77,46.86,34.47,45,34.26,43.13Z"/><path class="cls-2" d="M36.27,67.78a6,6,0,0,1-3.36-1.53c-1.11-.91-2.15-1.9-3.2-2.88a8.13,8.13,0,0,1-2.32-4.68,3.54,3.54,0,0,1,0-2.36c0,.2.08.39.1.59a10.36,10.36,0,0,0,3.21,6.73,28.89,28.89,0,0,0,5.55,4.17Z"/><path class="cls-2" d="M43.78,42.68a3.26,3.26,0,0,1-2.13.67c-.26-.9-.26-.9.08-2.89L44,39.93Z"/><path class="cls-2" d="M50.69,42c-1.87.49-2.95-.21-2.72-1.79a5.08,5.08,0,0,1,2.32.17c.16,0,.34.36.38.58A5,5,0,0,1,50.69,42Z"/><path class="cls-2" d="M59.1,42.49l1.08.52c-.42,1.47-.81,2.84-1.19,4.19C58.22,46.45,58.25,43.82,59.1,42.49Z"/><path class="cls-2" d="M33.74,43.74c-.12,1-.2,1.87-.32,2.69,0,.1-.19.19-.45.41-.16-.83-.3-1.53-.45-2.32Z"/><path class="cls-2" d="M36.23,42.17l1.52-.55-.53,2.23A2.17,2.17,0,0,1,36.23,42.17Z"/><path class="cls-2" d="M32.75,51.69c.33,1.76.27,1.88-1,2.21Z"/><path class="cls-2" d="M55.93,65.92l2.26-.69a3,3,0,0,1-2.2.94Z"/><path class="cls-2" d="M61.2,43.73l-.38,1.64C60.33,44.44,60.37,44.22,61.2,43.73Z"/><path class="cls-2" d="M62,45.91c-.77-.36-.78-.48-.29-1.41Z"/><path class="cls-2" d="M57.38,41.79c.57.47.57.47-.32,1.38Z"/><path class="cls-2" d="M36.25,67.82l1.23.2c-.48.22-.92.24-1.21-.23Z"/><path class="cls-2" d="M59.46,64.5l.71-.56.12.14-.69.62Z"/><path class="cls-3" d="M150.47,92.21V90.26h.23v2Z"/><path class="cls-2" d="M47.92,42.89l-.78.29-.09-.25.78-.28Z"/><path class="cls-1" d="M44.28,60.28a7.35,7.35,0,0,0,0,1q.52,3.45,1.07,6.9a2.27,2.27,0,0,0,.22.74,9.87,9.87,0,0,1,.88,4.41,13.19,13.19,0,0,0,.34,1.76c-.17-.1-.44-.17-.47-.29A7.07,7.07,0,0,1,46,73.34a13.61,13.61,0,0,0-.73-3.78,28.64,28.64,0,0,1-1-4.42c-.35-2-.6-3.94-.87-5.91a1.76,1.76,0,0,1,.36-1.71L44,59.64a4.1,4.1,0,0,1,2.12,1.78,25.14,25.14,0,0,0,1.92,2.23c.58.71,1.13,1.45,1.69,2.18-.46.34-.46.34-1.47-1-.58.84,0,1.7-.08,2.66a3.47,3.47,0,0,1-.59-2.09c0-.48.06-1-.49-1.26a.39.39,0,0,1-.17-.27C46.66,62.25,45.29,61.43,44.28,60.28Z"/><path class="cls-1" d="M38.43,58.07c.22.17.53.3.64.52.44.92.87,1.86,1.22,2.82A2.59,2.59,0,0,0,41,62.6,10.4,10.4,0,0,1,42.28,64a8.58,8.58,0,0,1,.54,1l-.19.13-.6-.48c-.57.8.21,1.6-.11,2.45-.46-.4-.4-.91-.48-1.35a4.89,4.89,0,0,1,0-1.21,1.55,1.55,0,0,0-.64-1.45,2.9,2.9,0,0,1-1-1.77,16.5,16.5,0,0,0-.92-2.24c-.13-.33-.24-.68-.36-1Z"/><path class="cls-1" d="M43.11,74.87,42,72.73c-.54,0-1.23.57-1.73-.53.75.43,1.17.06,1.64-.17s.9-.49,1.37-.71c.24-.11.25-.08.68.41l-1.49.53.89,2.49Z"/><text class="cls-4" transform="translate(89.98 68.7)">s<tspan class="cls-5" x="20.94" y="0">l</tspan><tspan x="33.7" y="0">i</tspan><tspan class="cls-6" x="45.88" y="0">n</tspan><tspan x="74.24" y="0">er </tspan><tspan class="cls-7" x="138.04" y="0">	</tspan><tspan class="cls-8" x="144" y="-10">Ska</tspan><tspan class="cls-9" x="192" y="-10">t</tspan><tspan class="cls-8" x="197.64" y="-10">eboards</tspan></text></svg>