<svg id="Layer_1" data-name="Layer 1" xmlns="http://www.w3.org/2000/svg" viewBox="0 0 210.86 242.48"><defs><style>.cls-1{fill:#fff;}</style></defs><path d="M137.64,37.79a9.25,9.25,0,0,1,.24,1.38,5,5,0,0,0,2.25,4.51c.62.46,1.07,1.08.43,1.82s-1,1.32-2.15.66a8.16,8.16,0,0,0-9.77.62c-6.68,5.44-12.59,11.59-16.21,19.59a22.63,22.63,0,0,0-.76,2.14c-.08.22-.13.45-.26.89,1.92-.72,3.68-1.39,5.46-2,3.37-1.22,6.74-2.49,10.15-3.61a13.41,13.41,0,0,1,9.37.49c3.33,1.32,6.81,2.3,10.1,3.73a28.45,28.45,0,0,1,12,9.61c3.63,5.12,7.22,10.27,10.69,15.49,2.66,4,3.72,8.61,4.42,13.31,1.33,9,.78,18-.6,27a121.92,121.92,0,0,1-3.94,18,26,26,0,0,1-26.67,18.27,31.64,31.64,0,0,1-7.15-1.8c-2.16-.7-4.22-1.7-6.38-2.59a17.1,17.1,0,0,0-3.27,7.94c-.55,4.6-.92,9.23-1.45,13.83-.39,3.37-.9,6.73-1.4,10.09a12.13,12.13,0,0,1-.68,2c-1.89-1.69-3.23-.41-4.48.66-2.64,2.24-5.35,2.19-8.35.78a20.33,20.33,0,0,1-9.16-8.33c-2.92-5-5.86-10-8.69-15.05a3,3,0,0,0-2.57-1.71,112.3,112.3,0,0,1-19.19-4.11c-8.21-2.54-16.1-5.8-22.78-11.38a63.7,63.7,0,0,1-6.58-6.46c-5.35-6-7.22-13.18-6.44-21,.38-3.76,1.48-7.44,2-11.19.78-5.86,1.37-11.74,2-17.63.8-8.28,2.85-16.11,7.88-22.93a23.92,23.92,0,0,1,10.52-8.56c9.07-3.6,18.36-6,28.14-6.13a28,28,0,0,1,6.82,1.09c3.14.77,6.2,1.87,9.33,2.64a32.25,32.25,0,0,0,4.74.45c.88.08,1.31-.29,1.58-1.19a46.63,46.63,0,0,1,8.43-15.62,47.72,47.72,0,0,1,16.59-13.69A48.54,48.54,0,0,1,137.64,37.79ZM89.83,174.07c-.22-2.95-1-4-3.49-4.64a26.94,26.94,0,0,1-10.28-4.68c-2.49-2-4.94-4.07-7.24-6.28a24.17,24.17,0,0,1-7.35-14.21,35.43,35.43,0,0,1,1.83-16.62c1-2.84,2-5.64,3.06-8.43,2.16-5.75,4.79-11.23,10.06-14.82a49.72,49.72,0,0,1,13.91-6.87c4.28-1.24,8.7-2,13.06-3a22.88,22.88,0,0,1,8.57-.21l11,1.72c3.89.62,7.82,1.11,11.67,1.94a82.11,82.11,0,0,1,8.22,2.54c5.8,1.89,9.7,5.61,10.92,11.72,1,5.17.9,10.42.69,15.65a57.66,57.66,0,0,1-.68,8.83c-1.06,5.47-2.51,10.86-3.76,16.3a5.75,5.75,0,0,1-2.75,4.12,16,16,0,0,0-1.72,1.49A29.23,29.23,0,0,1,141,162a67.46,67.46,0,0,1-6.91,2.64l-1.68.67,4,1.69a18.44,18.44,0,0,0,10.2,1.44c10.11-1.66,17.5-6.89,20.94-16.87A105.78,105.78,0,0,0,171.78,133c1.43-9.34,2-18.66.16-28-.7-3.58-1.45-7.12-3.53-10.22-2.85-4.25-5.74-8.48-8.5-12.78A32.37,32.37,0,0,0,148.12,70.5c-4.56-2.48-9.52-3.92-14.44-5.36-3.84-1.12-7.59,0-11.2,1.44-3.85,1.54-7.7,3.11-11.57,4.58a10.89,10.89,0,0,1-6.34.79c-4.7-1.09-9.4-2.22-14.07-3.41a25,25,0,0,0-9.12-1,95.11,95.11,0,0,0-22.46,5.15c-3,1.11-5.94,2.22-8.3,4.44a36.73,36.73,0,0,0-6.86,9c-3.54,6.35-4.43,13.32-5,20.41-.45,5.32-1.11,10.64-1.83,15.94-.45,3.31-1.38,6.56-1.78,9.87a25.48,25.48,0,0,0,5.94,20.19c6,7.13,13.48,11.89,22,15.23a123.7,123.7,0,0,0,22.4,5.95A34.83,34.83,0,0,0,89.83,174.07Zm26.1,8.5-.23-.31c.24-.3.47-.61.72-.9a13.54,13.54,0,0,0,3.52-8,38.53,38.53,0,0,1,2.13-10.65,10.3,10.3,0,0,0,.61-3.61,19.4,19.4,0,0,1,.89-5.76,6.63,6.63,0,0,0,.16-3.25c-1.47-6.5-8.57-10.67-14.14-9.56a4.22,4.22,0,0,1-2.25-.72c-.68-.32-1.22-1-1.92-1.2a13.88,13.88,0,0,0-11.26,1.2l1.55.87c-1.62.78-3.23.92-4.42,1.71s-1.91,2.21-3,3.53l-.85-2.83a6.29,6.29,0,0,0-1.54,4.4c.13,4,0,8,.2,12a30,30,0,0,0,.8,4.46l.44-.05c0-1.34,0-2.68,0-4-.1-2.35-.26-4.7-.37-7.06,0-.68.07-1.33.94-1.61.18,2.7.43,5.32.51,8a39.48,39.48,0,0,0,3.22,15c3,6.78,7,13,10.94,19.25a15.15,15.15,0,0,0,8.77,6.32c2.87.86,7-1.15,8.07-3.92a1.53,1.53,0,0,0,.16-.57,32.63,32.63,0,0,0-.16-5.86c-.52-2.66-1.24-5.27-1.05-8,0,0,0,0-.14-.14ZM63.72,132.24l.43.09a4.73,4.73,0,0,0,.47-.81c.65-1.84,1.18-3.73,1.93-5.53,1.6-3.83,3.38-7.58,5-11.42a18.6,18.6,0,0,1,7.24-8.86c8.18-5.29,17.26-7.72,26.88-8.5,4.51-.36,8.93.34,13.36.87,3.09.37,6.15.92,9.23,1.35,2.93.41,5.86.7,8.58,2a6.74,6.74,0,0,0,1.94.29l.2-.34c-.42-.35-.78-.88-1.26-1a54.13,54.13,0,0,0-6.36-1.68c-4.32-.75-8.67-1.31-13-1.94-2.8-.41-5.6-.91-8.42-1.17-3.57-.34-7.05.45-10.55,1.11A66.69,66.69,0,0,0,82,102.42a25.9,25.9,0,0,0-13.37,14.65c-1.23,3.29-2.54,6.54-3.67,9.86A53.13,53.13,0,0,0,63.72,132.24Zm76-30.36a17,17,0,0,0,2.18,1.83,36.61,36.61,0,0,0,3.36,1.56,6.7,6.7,0,0,1,3.94,4.4,46,46,0,0,1,1.6,7.47,116.7,116.7,0,0,1,.09,22.35,46.8,46.8,0,0,0,0,4.74c.08-.06.17-.1.19-.16.1-.3.18-.6.27-.91a52.68,52.68,0,0,0,1.85-14.07c.14-5.75.3-11.51-.69-17.21C151.4,105.57,145.1,101.84,139.71,101.88ZM107.66,70.31c2.16-.29,2-.35,2.68-2.13.85-2.26,1.59-4.72,3-6.57,3.84-4.83,7.94-9.48,12.13-14a12.08,12.08,0,0,1,10.32-4.08,4.69,4.69,0,0,0,1.11-.18l-.9-4C121.79,45.32,112.94,56.05,107.66,70.31Zm-23.27,96.8c-.36-.24-.73-.45-1.08-.71-3.5-2.58-7.14-5-10.46-7.8a25.84,25.84,0,0,1-9.3-15.9c-.18-1.11-.29-2.24-.44-3.36h-.3a4.57,4.57,0,0,0-.3,1.32,30.84,30.84,0,0,0,.51,4.5,43.39,43.39,0,0,0,2,7,10.79,10.79,0,0,0,2.75,3.42c3.21,3,6.45,6,9.8,8.81A10.72,10.72,0,0,0,84.39,167.11Zm-2.61-47.38c2.49-2.91,2.89-9.3.93-14.71-.61.3-1.19.63-1.81.89a1.39,1.39,0,0,0-.91,1.66,37,37,0,0,1-.12,4.07C79.75,114.51,79.94,117.3,81.78,119.73Zm22.28-21.19c-1.84.42-3.47.78-5.09,1.18-.24.06-.61.25-.64.43-.36,2.1-1,4.21-.32,6.35a1.14,1.14,0,0,0,.81.63c1.73.14,3.1-.82,4.51-1.63a.55.55,0,0,0,.19-.41C103.71,103,103.88,100.83,104.06,98.54Zm11.64.5c-2.17.12-2.46.5-1.87,2.57.52,1.82,1.82,2.61,4.3,2.59s2.77-.44,2.43-2.77a1.85,1.85,0,0,0-1.7-1.85C117.8,99.47,116.75,99.23,115.7,99Zm25.61,5.89c-2.12,2.6-2.39,10.09-.25,11.57.74-2.59,1.46-5.14,2.19-7.69C144.05,106,144.05,106,141.31,104.93ZM76.69,115.55l.48.15a8.1,8.1,0,0,0,.89-2c.3-1.85.44-3.73.67-5.82a28.3,28.3,0,0,0-2.44,1.59,1.51,1.51,0,0,0-.53,1.13C76,112.27,76.37,113.91,76.69,115.55Zm8.11-11.41a5.22,5.22,0,0,0,2.51,4.22c.24-1,.44-1.93.64-2.81s.43-1.79.69-2.86c-1.22.43-2.2.78-3.16,1.14C85.26,103.91,85.05,104,84.8,104.14ZM73.7,132.93c2.9-.06,3.69-1.73,2.43-5.18Zm.48-20.53-2.3,4.94C74.73,116.75,75.25,115.66,74.18,112.4Zm65,48.57c-2,.6-3.7,1.1-5.39,1.62-.13,0-.31.34-.27.42s.31.42.45.4A7.3,7.3,0,0,0,139.14,161Zm7.36-52.91c-1.78.54-2.53,1.93-.91,3.88C145.9,110.6,146.19,109.36,146.5,108.06ZM137,103.18l-.76,3.3C138.28,105.1,138.49,104.28,137,103.18Zm10.94,6.9-.35-.07a7.28,7.28,0,0,0-.49,2.23c0,.42.79.78,1.22,1.17l.25-.22ZM114,105.76c-.52-.22-.75-.4-.88-.35-.54.23-1.05.53-1.57.81.17.12.38.37.5.33C112.61,106.37,113.15,106.12,114,105.76ZM87.69,167.85l-2.79-.46C85.71,168.6,86.66,168.45,87.69,167.85Zm56.55-9.66-.31-.35c-.52.38-1.05.75-1.54,1.17-.1.08-.07.33-.1.5.17,0,.4.12.49,0C143.28,159.12,143.75,158.65,144.24,158.19Z"/><path d="M120.39,201.75a7.86,7.86,0,0,1,.63,2.38,14.32,14.32,0,0,0,1.6,6.69,10.18,10.18,0,0,1,0,9.11c-.59-.35-1.21-.67-1.78-1.08a.93.93,0,0,1-.37-.75c.41-1.92-.28-3.63-.94-5.34a13.42,13.42,0,0,1-.3-9.93,7.25,7.25,0,0,1,.75-1.2Z"/><path class="cls-1" d="M89.83,174.07a34.83,34.83,0,0,1-4.33-.29,123.7,123.7,0,0,1-22.4-5.95c-8.56-3.34-16.08-8.1-22-15.23a25.48,25.48,0,0,1-5.94-20.19c.4-3.31,1.33-6.56,1.78-9.87.72-5.3,1.38-10.62,1.83-15.94.6-7.09,1.49-14.06,5-20.41a36.73,36.73,0,0,1,6.86-9c2.36-2.22,5.34-3.33,8.3-4.44a95.11,95.11,0,0,1,22.46-5.15,25,25,0,0,1,9.12,1c4.67,1.19,9.37,2.32,14.07,3.41a10.89,10.89,0,0,0,6.34-.79c3.87-1.47,7.72-3,11.57-4.58,3.61-1.46,7.36-2.56,11.2-1.44,4.92,1.44,9.88,2.88,14.44,5.36A32.37,32.37,0,0,1,159.91,82c2.76,4.3,5.65,8.53,8.5,12.78,2.08,3.1,2.83,6.64,3.53,10.22,1.82,9.35,1.27,18.67-.16,28a105.78,105.78,0,0,1-4.16,18.54c-3.44,10-10.83,15.21-20.94,16.87a18.44,18.44,0,0,1-10.2-1.44l-4-1.69,1.68-.67A67.46,67.46,0,0,0,141,162a29.23,29.23,0,0,0,4.51-3.32,16,16,0,0,1,1.72-1.49,5.75,5.75,0,0,0,2.75-4.12c1.25-5.44,2.7-10.83,3.76-16.3a57.66,57.66,0,0,0,.68-8.83c.21-5.23.35-10.48-.69-15.65-1.22-6.11-5.12-9.83-10.92-11.72A82.11,82.11,0,0,0,134.62,98c-3.85-.83-7.78-1.32-11.67-1.94l-11-1.72a22.88,22.88,0,0,0-8.57.21c-4.36,1-8.78,1.71-13.06,3a49.72,49.72,0,0,0-13.91,6.87c-5.27,3.59-7.9,9.07-10.06,14.82-1,2.79-2.11,5.59-3.06,8.43a35.43,35.43,0,0,0-1.83,16.62,24.17,24.17,0,0,0,7.35,14.21c2.3,2.21,4.75,4.29,7.24,6.28a26.94,26.94,0,0,0,10.28,4.68C88.78,170.05,89.61,171.12,89.83,174.07Z"/><path class="cls-1" d="M115.93,182.57l2.31-1.29c.09.09.14.12.14.14-.19,2.74.53,5.35,1.05,8a32.63,32.63,0,0,1,.16,5.86,1.53,1.53,0,0,1-.16.57c-1.11,2.77-5.2,4.78-8.07,3.92a15.15,15.15,0,0,1-8.77-6.32c-4-6.24-7.94-12.47-10.94-19.25a39.48,39.48,0,0,1-3.22-15c-.08-2.63-.33-5.25-.51-8-.87.28-1,.93-.94,1.61.11,2.36.27,4.71.37,7.06.05,1.33,0,2.67,0,4l-.44.05a30,30,0,0,1-.8-4.46c-.15-4-.07-8-.2-12a6.29,6.29,0,0,1,1.54-4.4l.85,2.83c1.07-1.32,1.81-2.75,3-3.53s2.8-.93,4.42-1.71l-1.55-.87a13.88,13.88,0,0,1,11.26-1.2c.7.22,1.24.88,1.92,1.2a4.22,4.22,0,0,0,2.25.72c5.57-1.11,12.67,3.06,14.14,9.56a6.63,6.63,0,0,1-.16,3.25,19.4,19.4,0,0,0-.89,5.76,10.3,10.3,0,0,1-.61,3.61,38.53,38.53,0,0,0-2.13,10.65,13.54,13.54,0,0,1-3.52,8c-.25.29-.48.6-.72.9Zm-12.46-40.51a3.58,3.58,0,0,0-1.07,3.16c.12,1,.25,2,.42,3,1.11,6.69,2.15,13.4,3.4,20.07.61,3.24,1.74,6.39,2.45,9.62.45,2,.53,4.11.88,6.15a5,5,0,0,0,.85,1.43l.37-.2c0-.3,0-.61-.08-.91-.23-1.58-.55-3.15-.67-4.73-.28-3.4-.56-6.78-2.31-9.83a3.37,3.37,0,0,1-.3-1.15c-.88-5.56-1.76-11.12-2.6-16.69-.13-.88-.1-1.78-.15-2.67l.33-.14,3.31,3.39a10,10,0,0,1,2.94,5,1.28,1.28,0,0,0,.43.82c1.07.63,1.16,1.63,1.21,2.7a18.35,18.35,0,0,0,.28,2.86,18.83,18.83,0,0,0,.87,2.45l.41-.12c-.15-1-.28-2-.44-3a3.91,3.91,0,0,1,.55-3c.58.72,1.06,1.35,1.57,2s1.09,1.39,2,.35c-.69-.92-1.34-1.82-2-2.68-2.63-3.22-5.22-6.47-8-9.59a25.65,25.65,0,0,0-3.34-2.66,2.25,2.25,0,0,1-.81-1.12C103.77,145.06,103.66,143.67,103.47,142.06ZM99.12,159.7l1.72,1.1c.07-.32.14-.45.11-.54a1.84,1.84,0,0,0-.27-.66c-1.17-1.55-2.4-3.07-3.55-4.64a24.93,24.93,0,0,1-2.27-3.44c-1-2.08-1.83-4.26-2.8-6.35a7.89,7.89,0,0,0-1.23-1.56l-.3.21c.13.41.23.82.38,1.22,1,2.72,2,5.46,3.18,8.13a7.46,7.46,0,0,0,1.8,2.48,4.59,4.59,0,0,1,1.67,3.78,24.7,24.7,0,0,0,.3,4.29,9.24,9.24,0,0,0,.89,2.08C99.59,163.54,97.83,161.58,99.12,159.7ZM95,178.32a2.14,2.14,0,0,0,2.91,1.42c1-.3,1.43,0,1.82.91.62,1.42,1.37,2.77,2.06,4.16l.42,0a3.14,3.14,0,0,0,0-1c-.59-1.76-1.22-3.51-1.85-5.3l3.53-1.34c-.59-1.1-1.25-1.38-2.28-.72s-2,1-3,1.57A3.56,3.56,0,0,1,95,178.32Z"/><path class="cls-1" d="M63.72,132.24A53.13,53.13,0,0,1,65,126.93c1.13-3.32,2.44-6.57,3.67-9.86A25.9,25.9,0,0,1,82,102.42a66.69,66.69,0,0,1,17.32-5.7c3.5-.66,7-1.45,10.55-1.11,2.82.26,5.62.76,8.42,1.17,4.35.63,8.7,1.19,13,1.94a54.13,54.13,0,0,1,6.36,1.68c.48.14.84.67,1.26,1l-.2.34a6.74,6.74,0,0,1-1.94-.29c-2.72-1.34-5.65-1.63-8.58-2-3.08-.43-6.14-1-9.23-1.35-4.43-.53-8.85-1.23-13.36-.87-9.62.78-18.7,3.21-26.88,8.5a18.6,18.6,0,0,0-7.24,8.86c-1.57,3.84-3.35,7.59-5,11.42-.75,1.8-1.28,3.69-1.93,5.53a4.73,4.73,0,0,1-.47.81Z"/><path class="cls-1" d="M139.71,101.88c5.39,0,11.69,3.69,12.77,10,1,5.7.83,11.46.69,17.21a52.68,52.68,0,0,1-1.85,14.07c-.09.31-.17.61-.27.91,0,.06-.11.1-.19.16a46.8,46.8,0,0,1,0-4.74,116.7,116.7,0,0,0-.09-22.35,46,46,0,0,0-1.6-7.47,6.7,6.7,0,0,0-3.94-4.4,36.61,36.61,0,0,1-3.36-1.56A17,17,0,0,1,139.71,101.88Z"/><path class="cls-1" d="M107.66,70.31c5.28-14.26,14.13-25,28.39-31l.9,4a4.69,4.69,0,0,1-1.11.18,12.08,12.08,0,0,0-10.32,4.08c-4.19,4.54-8.29,9.19-12.13,14-1.46,1.85-2.2,4.31-3,6.57C109.67,70,109.82,70,107.66,70.31Z"/><path class="cls-1" d="M84.39,167.11a10.72,10.72,0,0,1-6.85-2.76c-3.35-2.84-6.59-5.81-9.8-8.81A10.79,10.79,0,0,1,65,152.12a43.39,43.39,0,0,1-2-7,30.84,30.84,0,0,1-.51-4.5,4.57,4.57,0,0,1,.3-1.32h.3c.15,1.12.26,2.25.44,3.36a25.84,25.84,0,0,0,9.3,15.9c3.32,2.8,7,5.22,10.46,7.8C83.66,166.66,84,166.87,84.39,167.11Z"/><path class="cls-1" d="M81.78,119.73c-1.84-2.43-2-5.22-1.91-8.09a37,37,0,0,0,.12-4.07,1.39,1.39,0,0,1,.91-1.66c.62-.26,1.2-.59,1.81-.89C84.67,110.43,84.27,116.82,81.78,119.73Z"/><path class="cls-1" d="M104.06,98.54c-.18,2.29-.35,4.42-.54,6.55a.55.55,0,0,1-.19.41c-1.41.81-2.78,1.77-4.51,1.63a1.14,1.14,0,0,1-.81-.63c-.7-2.14,0-4.25.32-6.35,0-.18.4-.37.64-.43C100.59,99.32,102.22,99,104.06,98.54Z"/><path class="cls-1" d="M115.7,99c1,.19,2.1.43,3.16.54a1.85,1.85,0,0,1,1.7,1.85c.34,2.33,0,2.75-2.43,2.77s-3.78-.77-4.3-2.59C113.24,99.54,113.53,99.16,115.7,99Z"/><path class="cls-1" d="M141.31,104.93c2.74,1.11,2.74,1.11,1.94,3.88-.73,2.55-1.45,5.1-2.19,7.69C138.92,115,139.19,107.53,141.31,104.93Z"/><path class="cls-1" d="M76.69,115.55c-.32-1.64-.68-3.28-.93-4.93a1.51,1.51,0,0,1,.53-1.13,28.3,28.3,0,0,1,2.44-1.59c-.23,2.09-.37,4-.67,5.82a8.1,8.1,0,0,1-.89,2Z"/><path class="cls-1" d="M84.8,104.14c.25-.12.46-.23.68-.31,1-.36,1.94-.71,3.16-1.14-.26,1.07-.48,2-.69,2.86s-.4,1.77-.64,2.81A5.22,5.22,0,0,1,84.8,104.14Z"/><path class="cls-1" d="M73.7,132.93l2.43-5.18C77.39,131.2,76.6,132.87,73.7,132.93Z"/><path class="cls-1" d="M74.18,112.4c1.07,3.26.55,4.35-2.3,4.94Z"/><path class="cls-1" d="M139.14,161a7.3,7.3,0,0,1-5.21,2.44c-.14,0-.37-.23-.45-.4s.14-.37.27-.42C135.44,162.07,137.14,161.57,139.14,161Z"/><path class="cls-1" d="M146.5,108.06c-.31,1.3-.6,2.54-.91,3.88C144,110,144.72,108.6,146.5,108.06Z"/><path class="cls-1" d="M137,103.18c1.53,1.1,1.32,1.92-.76,3.3Z"/><path class="cls-1" d="M147.9,110.08l.63,3.11-.25.22c-.43-.39-1.18-.75-1.22-1.17a7.28,7.28,0,0,1,.49-2.23Z"/><path class="cls-1" d="M114,105.76c-.85.36-1.39.61-2,.79-.12,0-.33-.21-.5-.33.52-.28,1-.58,1.57-.81C113.25,105.36,113.48,105.54,114,105.76Z"/><path class="cls-1" d="M87.69,167.85c-1,.6-2,.75-2.79-.46Z"/><path class="cls-1" d="M144.24,158.19c-.49.46-1,.93-1.46,1.36-.09.08-.32,0-.49,0,0-.17,0-.42.1-.5.49-.42,1-.79,1.54-1.17Z"/><path d="M103.47,142.06c.19,1.61.3,3,.55,4.36a2.25,2.25,0,0,0,.81,1.12,25.65,25.65,0,0,1,3.34,2.66c2.73,3.12,5.32,6.37,8,9.59.7.86,1.35,1.76,2,2.68-1,1-1.5.28-2-.35s-1-1.23-1.57-2a3.91,3.91,0,0,0-.55,3c.16,1,.29,2,.44,3l-.41.12a18.83,18.83,0,0,1-.87-2.45,18.35,18.35,0,0,1-.28-2.86c0-1.07-.14-2.07-1.21-2.7a1.28,1.28,0,0,1-.43-.82,10,10,0,0,0-2.94-5L105,149.14l-.33.14c0,.89,0,1.79.15,2.67.84,5.57,1.72,11.13,2.6,16.69a3.37,3.37,0,0,0,.3,1.15c1.75,3.05,2,6.43,2.31,9.83.12,1.58.44,3.15.67,4.73,0,.3.06.61.08.91l-.37.2a5,5,0,0,1-.85-1.43c-.35-2-.43-4.14-.88-6.15-.71-3.23-1.84-6.38-2.45-9.62-1.25-6.67-2.29-13.38-3.4-20.07-.17-1-.3-2-.42-3A3.58,3.58,0,0,1,103.47,142.06Z"/><path d="M99.12,159.7c-1.29,1.88.47,3.84-.37,6.1a9.24,9.24,0,0,1-.89-2.08,24.7,24.7,0,0,1-.3-4.29,4.59,4.59,0,0,0-1.67-3.78,7.46,7.46,0,0,1-1.8-2.48c-1.15-2.67-2.14-5.41-3.18-8.13-.15-.4-.25-.81-.38-1.22l.3-.21a7.89,7.89,0,0,1,1.23,1.56c1,2.09,1.78,4.27,2.8,6.35A24.93,24.93,0,0,0,97.13,155c1.15,1.57,2.38,3.09,3.55,4.64a1.84,1.84,0,0,1,.27.66c0,.09,0,.22-.11.54Z"/><path d="M95,178.32a3.56,3.56,0,0,0,3.7-.37c1-.55,2-1,3-1.57s1.69-.38,2.28.72l-3.53,1.34c.63,1.79,1.26,3.54,1.85,5.3a3.14,3.14,0,0,1,0,1l-.42,0c-.69-1.39-1.44-2.74-2.06-4.16-.39-.87-.82-1.21-1.82-.91A2.14,2.14,0,0,1,95,178.32Z"/></svg>